# xmcd
#
# Track frame offsets:
#	150
#	20127
#	39678
#	69888
#	88160
#	112804
#	141410
#	167752
#	190106
#	214535
#	244179
#	270904
#	305450
#
# Disc length: 4409 seconds
# Revision: 2
# Processed by: cddbd v1.5.2PL0 Copyright (c) Steve Scherf et al.
# Submitted via: dBpowerAMP V12.0
#
DISCID=b011370d
DTITLE=The Jeff Healey Band - Live in Belgium
DYEAR=2012
DGENRE=Blues
TTITLE0=Baby's Lookin' Hot
TTITLE1=The House Love Built
TTITLE2=Evil and Here To Stay
TTITLE3=Confidence Man
TTITLE4=It Could All Get Blown Away
TTITLE5=Lost In Your Eyes
TTITLE6=Heart of an Angel
TTITLE7=Full Circle
TTITLE8=That's What They Say
TTITLE9=Angel Eyes
TTITLE10=Roadhouse Blues
TTITLE11=See the Light
TTITLE12=While My Guitar Gently Weeps
EXTD=
EXTT0=
EXTT1=
EXTT2=
EXTT3=
EXTT4=
EXTT5=
EXTT6=
EXTT7=
EXTT8=
EXTT9=
EXTT10=
EXTT11=
EXTT12=
PLAYORDER=
